<svg xmlns="http://www.w3.org/2000/svg" width="25" height="26" viewBox="0 0 25 26" fill="none">
  <path d="M18.8723 25.0466C17.5559 25.0466 16.1696 24.7321 14.7367 24.1263C13.3388 23.5322 11.9292 22.7167 10.5545 21.7265C9.19152 20.7246 7.87512 19.6062 6.62861 18.383C5.39376 17.1365 4.2754 15.8201 3.28518 14.4688C2.28332 13.0708 1.4795 11.6729 0.908667 10.3215C0.302889 8.87698 0 7.47903 0 6.16263C0 5.25396 0.163094 4.39189 0.477633 3.58807C0.803821 2.76095 1.32805 1.99208 2.03868 1.32805C2.93569 0.442684 3.96086 0 5.05592 0C5.51025 0 5.97623 0.104846 6.37232 0.29124C6.82665 0.500932 7.21109 0.815471 7.49068 1.23486L10.1934 5.04427C10.438 5.38211 10.6244 5.70829 10.7526 6.03448C10.904 6.38397 10.9856 6.73346 10.9856 7.0713C10.9856 7.51398 10.8574 7.94501 10.6128 8.35275C10.438 8.66729 10.1701 9.00513 9.83225 9.34297L9.04008 10.1701C9.05172 10.205 9.06337 10.2283 9.07502 10.2516C9.21482 10.4963 9.49441 10.9157 10.0303 11.5447C10.6011 12.1971 11.137 12.7912 11.6729 13.3388C12.3602 14.0144 12.931 14.5503 13.4669 14.993C14.1309 15.5522 14.562 15.8318 14.8183 15.9599L14.795 16.0182L15.6454 15.1794C16.0065 14.8183 16.356 14.5503 16.6938 14.3756C17.3346 13.9795 18.15 13.9096 18.9655 14.2474C19.2684 14.3756 19.5946 14.5503 19.9441 14.795L23.8117 17.5443C24.2428 17.8355 24.5573 18.2083 24.7437 18.651C24.9185 19.0937 25 19.5014 25 19.9091C25 20.4683 24.8719 21.0275 24.6272 21.5517C24.3826 22.076 24.0797 22.5303 23.6952 22.9497C23.0312 23.6836 22.3089 24.2078 21.4702 24.5457C20.6664 24.8719 19.7926 25.0466 18.8723 25.0466ZM5.05592 1.74744C4.41519 1.74744 3.82106 2.02703 3.25023 2.58621C2.71435 3.08714 2.34157 3.63467 2.10857 4.2288C1.86393 4.83458 1.74744 5.4753 1.74744 6.16263C1.74744 7.24604 2.00373 8.42265 2.51631 9.6342C3.04054 10.8691 3.77446 12.1505 4.70643 13.432C5.6384 14.7134 6.69851 15.9599 7.86347 17.1365C9.02843 18.2898 10.2866 19.3616 11.5797 20.3052C12.8378 21.2255 14.1309 21.9711 15.4124 22.507C17.4045 23.3574 19.2684 23.5555 20.8062 22.9147C21.4003 22.6701 21.9245 22.2973 22.4021 21.7614C22.6701 21.4702 22.8798 21.1556 23.0545 20.7829C23.1943 20.4916 23.2642 20.1887 23.2642 19.8858C23.2642 19.6994 23.2293 19.513 23.1361 19.3034C23.1011 19.2335 23.0312 19.1053 22.8099 18.9539L18.9422 16.2046C18.7092 16.0415 18.4995 15.925 18.3015 15.8434C18.0452 15.7386 17.9404 15.6337 17.5443 15.8784C17.3113 15.9949 17.1016 16.1696 16.8686 16.4026L15.9832 17.2763C15.5289 17.719 14.8299 17.8239 14.294 17.6258L13.9795 17.486C13.5019 17.2297 12.9427 16.8336 12.3253 16.3094C11.7661 15.8318 11.1603 15.2726 10.4264 14.5503C9.85555 13.9678 9.28472 13.3504 8.69059 12.6631C8.14306 12.0224 7.74697 11.4748 7.50233 11.0205L7.36254 10.671C7.29264 10.4031 7.26934 10.2516 7.26934 10.0885C7.26934 9.66915 7.42078 9.29636 7.71202 9.00513L8.58574 8.09646C8.81873 7.86347 8.99348 7.64213 9.10997 7.44408C9.20317 7.29264 9.23812 7.16449 9.23812 7.048C9.23812 6.9548 9.20317 6.815 9.14492 6.67521C9.06337 6.48882 8.93523 6.27912 8.77213 6.05778L6.06943 2.23672C5.95294 2.07363 5.81314 1.95713 5.6384 1.87558C5.452 1.79404 5.25396 1.74744 5.05592 1.74744ZM14.795 16.0298L14.6086 16.822L14.9231 16.0065C14.8649 15.9949 14.8183 16.0065 14.795 16.0298Z" fill="#FFB649"/>
</svg>