<svg width="40" height="36" viewBox="0 0 40 36" fill="none" xmlns="http://www.w3.org/2000/svg">
<path d="M2 2H5.20445C7.19341 2 8.75878 3.488 8.59303 5.2L7.06448 21.136C6.80665 23.744 9.18234 25.984 12.2026 25.984H31.816C34.4679 25.984 36.7884 24.096 36.991 21.808L37.9854 9.808C38.2064 7.152 35.886 4.992 32.8105 4.992H9.03504" stroke="black" stroke-width="3" stroke-miterlimit="10" stroke-linecap="round" stroke-linejoin="round"/>
<path d="M28.2434 33.9998C29.5149 33.9998 30.5455 33.1044 30.5455 31.9998C30.5455 30.8951 29.5149 29.9998 28.2434 29.9998C26.972 29.9998 25.9414 30.8951 25.9414 31.9998C25.9414 33.1044 26.972 33.9998 28.2434 33.9998Z" stroke="black" stroke-width="3" stroke-miterlimit="10" stroke-linecap="round" stroke-linejoin="round"/>
<path d="M13.51 33.9998C14.7814 33.9998 15.8121 33.1044 15.8121 31.9998C15.8121 30.8951 14.7814 29.9998 13.51 29.9998C12.2387 29.9998 11.208 30.8951 11.208 31.9998C11.208 33.1044 12.2387 33.9998 13.51 33.9998Z" stroke="black" stroke-width="3" stroke-miterlimit="10" stroke-linecap="round" stroke-linejoin="round"/>
<path d="M14.8911 11.5999H36.9907" stroke="black" stroke-width="3" stroke-miterlimit="10" stroke-linecap="round" stroke-linejoin="round"/>
</svg>
