<svg xmlns="http://www.w3.org/2000/svg" width="45" height="45" viewBox="0 0 45 45" fill="none">
  <path d="M23.9062 33.75H29.5312V39.375H23.9062V33.75Z" fill="black"/>
  <path d="M33.75 33.75H39.375V39.375H33.75V33.75Z" fill="black"/>
  <path d="M23.9062 23.9062H29.5312V29.5312H23.9062V23.9062Z" fill="black"/>
  <path d="M33.75 23.9062H39.375V29.5312H33.75V23.9062Z" fill="black"/>
  <path d="M39.375 15.4688H30.9375V9.84375C30.9375 7.45313 29.1094 5.625 26.7188 5.625H18.2813C15.8906 5.625 14.0625 7.45313 14.0625 9.84375V15.4688H5.625C4.78125 15.4688 4.21875 16.0313 4.21875 16.875V17.1563L6.89063 34.1719C7.03125 35.5781 8.29688 36.5625 9.70313 36.5625H21.0938V33.75H9.70313L7.3125 18.2813H39.375V15.4688ZM16.875 9.84375C16.875 9 17.4375 8.4375 18.2813 8.4375H26.7188C27.5625 8.4375 28.125 9 28.125 9.84375V15.4688H16.875V9.84375Z" fill="black"/>
</svg>