<svg xmlns="http://www.w3.org/2000/svg" width="18" height="20" viewBox="0 0 18 20" fill="none">
<path d="M8.63031 4.70197C8.00214 4.70197 7.38807 4.86241 6.86577 5.163C6.34347 5.46359 5.93638 5.89084 5.69599 6.39071C5.4556 6.89058 5.3927 7.44062 5.51525 7.97128C5.6378 8.50194 5.94029 8.98938 6.38448 9.37196C6.82866 9.75455 7.39458 10.0151 8.01068 10.1206C8.62678 10.2262 9.26539 10.172 9.84574 9.96497C10.4261 9.75792 10.9221 9.40729 11.2711 8.95742C11.6201 8.50755 11.8064 7.97864 11.8064 7.43759C11.8054 6.71231 11.4705 6.01697 10.8751 5.50412C10.2797 4.99127 9.47236 4.70279 8.63031 4.70197ZM8.63031 8.8054C8.31622 8.8054 8.00919 8.72518 7.74804 8.57488C7.48689 8.42458 7.28334 8.21096 7.16315 7.96103C7.04295 7.71109 7.0115 7.43607 7.07278 7.17074C7.13405 6.90541 7.2853 6.66169 7.50739 6.4704C7.72948 6.27911 8.01245 6.14884 8.3205 6.09606C8.62855 6.04328 8.94785 6.07037 9.23802 6.17389C9.5282 6.27742 9.77622 6.45274 9.95072 6.67767C10.1252 6.90261 10.2183 7.16706 10.2183 7.43759C10.2179 7.80022 10.0504 8.14789 9.75269 8.40431C9.45498 8.66074 9.05133 8.80498 8.63031 8.8054Z" fill="#6C6C6C"/>
<path d="M14.7335 2.17675C13.2245 0.877347 11.2101 0.105449 9.07923 0.0100327C6.94833 -0.0853834 4.85192 0.502446 3.19462 1.66007C1.53732 2.81769 0.436612 4.46305 0.104935 6.27857C-0.226743 8.0941 0.234122 9.95109 1.39858 11.4912L7.39875 19.425C7.53228 19.6016 7.71484 19.7466 7.92991 19.847C8.14497 19.9474 8.38573 20 8.63035 20C8.87498 20 9.11573 19.9474 9.33079 19.847C9.54586 19.7466 9.72843 19.6016 9.86195 19.425L15.8623 11.4912C16.9428 10.0625 17.4203 8.35741 17.2148 6.6616C17.0093 4.9658 16.1332 3.38238 14.7335 2.17675ZM14.5317 10.7445L8.63038 18.5475L2.72897 10.7445C0.922568 8.35605 1.31 5.15964 3.65018 3.14392C4.30418 2.5806 5.0806 2.13375 5.9351 1.82888C6.78961 1.52401 7.70546 1.3671 8.63038 1.3671C9.55529 1.3671 10.4711 1.52401 11.3256 1.82888C12.1802 2.13375 12.9566 2.5806 13.6106 3.14392C15.9508 5.15964 16.3381 8.35605 14.5317 10.7445Z" fill="#6C6C6C"/>
</svg>