<svg width="25" height="26" viewBox="0 0 25 26" fill="none" xmlns="http://www.w3.org/2000/svg">
<path d="M6.76923 4.17059H3.88462C3.11957 4.17059 2.38585 4.43997 1.84488 4.91946C1.30391 5.39896 1 6.0493 1 6.72741V22.0683C1 22.7464 1.30391 23.3968 1.84488 23.8763C2.38585 24.3558 3.11957 24.6251 3.88462 24.6251H21.1923C21.9574 24.6251 22.6911 24.3558 23.232 23.8763C23.773 23.3968 24.0769 22.7464 24.0769 22.0683V6.72741C24.0769 6.0493 23.773 5.39896 23.232 4.91946C22.6911 4.43997 21.9574 4.17059 21.1923 4.17059H18.3077M6.76923 4.17059C6.76923 3.49248 7.07315 2.84214 7.61412 2.36264C8.15509 1.88315 8.8888 1.61377 9.65385 1.61377H15.4231C16.1881 1.61377 16.9218 1.88315 17.4628 2.36264C18.0038 2.84214 18.3077 3.49248 18.3077 4.17059M6.76923 4.17059C6.76923 4.8487 7.07315 5.49903 7.61412 5.97853C8.15509 6.45803 8.8888 6.72741 9.65385 6.72741H15.4231C16.1881 6.72741 16.9218 6.45803 17.4628 5.97853C18.0038 5.49903 18.3077 4.8487 18.3077 4.17059M6.76923 11.841H18.3077M6.76923 16.9547H12.5385" stroke="black" stroke-width="1.5" stroke-linecap="round" stroke-linejoin="round"/>
</svg>
