<svg xmlns="http://www.w3.org/2000/svg" width="29" height="28" viewBox="0 0 29 28" fill="none">
  <path d="M19.5148 2.86815C21.6813 4.52874 23.0824 7.13637 23.0824 10.0813C23.0824 11.9624 22.5246 13.6879 21.5645 15.1279C20.1634 17.2036 17.945 18.6696 15.3633 19.0459C14.9222 19.1237 14.4681 19.1626 14.0011 19.1626C13.5341 19.1626 13.08 19.1237 12.6389 19.0459C10.0572 18.6696 7.83879 17.2036 6.43768 15.1279C5.47765 13.6879 4.9198 11.9624 4.9198 10.0813C4.9198 5.06064 8.98044 1 14.0011 1" stroke="#FFB649" stroke-width="2" stroke-linecap="round" stroke-linejoin="round"/>
  <path d="M26.0003 22.367L23.8597 22.873C23.3797 22.9897 23.0035 23.353 22.8997 23.833L22.4456 25.74C22.1991 26.7779 20.8758 27.0893 20.1883 26.272L14 19.1626L7.81174 26.2849C7.12416 27.1022 5.80088 26.7909 5.55439 25.753L5.10032 23.846C4.98356 23.3659 4.60734 22.9897 4.1403 22.8859L1.9997 22.38C1.01373 22.1464 0.663455 20.914 1.37699 20.2005L6.43657 15.1409C7.83769 17.2166 10.0561 18.6826 12.6378 19.0588C13.0789 19.1366 13.533 19.1756 14 19.1756C14.467 19.1756 14.9211 19.1366 15.3622 19.0588C17.9439 18.6826 20.1623 17.2166 21.5634 15.1409L26.623 20.2005C27.3365 20.901 26.9863 22.1335 26.0003 22.367Z" stroke="#FFB649" stroke-width="2" stroke-linecap="round" stroke-linejoin="round"/>
  <path d="M14.7536 6.16349L15.519 7.69432C15.6228 7.9019 15.8952 8.10948 16.1417 8.1484L17.5298 8.38191C18.412 8.52462 18.6196 9.17329 17.9839 9.80898L16.9071 10.8857C16.7255 11.0674 16.6217 11.4177 16.6866 11.6771L16.9979 13.0134C17.2444 14.0642 16.6866 14.4794 15.7525 13.9215L14.4552 13.1561C14.2217 13.0134 13.8325 13.0134 13.5989 13.1561L12.3016 13.9215C11.3675 14.4664 10.8096 14.0642 11.0561 13.0134L11.3675 11.6771C11.4194 11.4306 11.3286 11.0674 11.1469 10.8857L10.0702 9.80898C9.43447 9.17329 9.64205 8.53759 10.5242 8.38191L11.9124 8.1484C12.1459 8.10948 12.4184 7.9019 12.5222 7.69432L13.2876 6.16349C13.6638 5.3332 14.3384 5.3332 14.7536 6.16349Z" stroke="#FFB649" stroke-width="2" stroke-linecap="round" stroke-linejoin="round"/>
</svg>