<svg xmlns="http://www.w3.org/2000/svg" width="28" height="26" viewBox="0 0 28 26" fill="none">
  <path d="M25.7406 6.56668L21.7576 22.5577C21.474 23.7514 20.4103 24.5787 19.1811 24.5787H3.65106C1.8664 24.5787 0.589974 22.8294 1.12182 21.1156L6.09757 5.13664C6.44032 4.02566 7.46859 3.25732 8.62684 3.25732H23.1641C24.2869 3.25732 25.2206 3.94283 25.6106 4.88835C25.8352 5.39656 25.8824 5.97573 25.7406 6.56668Z" stroke="#FFB649" stroke-width="2" stroke-miterlimit="10"/>
  <path d="M18.7319 24.5787H24.3814C25.906 24.5787 27.0997 23.2905 26.9934 21.7658L25.8233 5.66846" stroke="#FFB649" stroke-width="2" stroke-miterlimit="10" stroke-linecap="round" stroke-linejoin="round"/>
  <path d="M11.2623 6.11754L12.4915 1.01184" stroke="#FFB649" stroke-width="2" stroke-miterlimit="10" stroke-linecap="round" stroke-linejoin="round"/>
  <path d="M19.1809 6.12936L20.2919 1" stroke="#FFB649" stroke-width="2" stroke-miterlimit="10" stroke-linecap="round" stroke-linejoin="round"/>
  <path d="M8.92224 12.7598H18.3774" stroke="#FFB649" stroke-width="2" stroke-miterlimit="10" stroke-linecap="round" stroke-linejoin="round"/>
  <path d="M7.74036 17.4873H17.1955" stroke="#FFB649" stroke-width="2" stroke-miterlimit="10" stroke-linecap="round" stroke-linejoin="round"/>
</svg>