<svg width="23" height="23" viewBox="0 0 23 23" fill="none" xmlns="http://www.w3.org/2000/svg">
<path d="M11.5 2.84224C10.1444 2.84224 8.84442 3.31181 7.8859 4.14765C6.92738 4.98348 6.38889 6.11712 6.38889 7.29918C6.38889 8.48123 6.92738 9.61487 7.8859 10.4507C8.84442 11.2865 10.1444 11.7561 11.5 11.7561C12.8556 11.7561 14.1556 11.2865 15.1141 10.4507C16.0726 9.61487 16.6111 8.48123 16.6111 7.29918C16.6111 6.11712 16.0726 4.98348 15.1141 4.14765C14.1556 3.31181 12.8556 2.84224 11.5 2.84224ZM3.83333 7.29918C3.83333 5.5261 4.64107 3.82564 6.07885 2.57188C7.51663 1.31812 9.46667 0.61377 11.5 0.61377C13.5333 0.61377 15.4834 1.31812 16.9212 2.57188C18.3589 3.82564 19.1667 5.5261 19.1667 7.29918C19.1667 9.07226 18.3589 10.7727 16.9212 12.0265C15.4834 13.2802 13.5333 13.9846 11.5 13.9846C9.46667 13.9846 7.51663 13.2802 6.07885 12.0265C4.64107 10.7727 3.83333 9.07226 3.83333 7.29918ZM6.38889 18.4415C5.37223 18.4415 4.3972 18.7937 3.67831 19.4206C2.95942 20.0475 2.55556 20.8977 2.55556 21.7842C2.55556 22.0797 2.42093 22.3631 2.1813 22.5721C1.94167 22.7811 1.61667 22.8985 1.27778 22.8985C0.93889 22.8985 0.613882 22.7811 0.374252 22.5721C0.134623 22.3631 0 22.0797 0 21.7842C0 20.3067 0.673113 18.8896 1.87126 17.8448C3.06941 16.8 4.69445 16.2131 6.38889 16.2131H16.6111C18.3056 16.2131 19.9306 16.8 21.1287 17.8448C22.3269 18.8896 23 20.3067 23 21.7842C23 22.0797 22.8654 22.3631 22.6257 22.5721C22.3861 22.7811 22.0611 22.8985 21.7222 22.8985C21.3833 22.8985 21.0583 22.7811 20.8187 22.5721C20.5791 22.3631 20.4444 22.0797 20.4444 21.7842C20.4444 20.8977 20.0406 20.0475 19.3217 19.4206C18.6028 18.7937 17.6278 18.4415 16.6111 18.4415H6.38889Z" fill="black"/>
</svg>
