<svg width="49" height="49" viewBox="0 0 49 49" fill="none" xmlns="http://www.w3.org/2000/svg">
<path d="M24.5 47C36.9263 47 47 36.9263 47 24.5C47 12.0736 36.9263 2 24.5 2C12.0736 2 2 12.0736 2 24.5C2 36.9263 12.0736 47 24.5 47Z" stroke="black" stroke-opacity="0.5" stroke-width="3" stroke-linecap="round" stroke-linejoin="round"/>
<path d="M29 11H38V18.5H35V14H29V11ZM20 11V14H14V18.5H11V11H20ZM29 38V35H35V30.5H38V38H29ZM20 38H11V30.5H14V35H20V38ZM11 23H38V26H11V23Z" fill="black" fill-opacity="0.5"/>
</svg>
