<svg width="55" height="63" viewBox="0 0 55 63" fill="none" xmlns="http://www.w3.org/2000/svg">
<path fill-rule="evenodd" clip-rule="evenodd" d="M42.1667 0C43.1786 0 44 0.821371 44 1.83335V3.66666H49.5C52.5323 3.66666 55 6.13435 55 9.16667V62.3333H0V9.16667C0 6.13435 2.46765 3.66666 5.50001 3.66666H10.9999V1.83335C10.9999 0.821339 11.8213 3.24653e-05 12.8333 3.24653e-05C13.8453 3.24653e-05 14.6666 0.821339 14.6666 1.83335V3.66666H40.3333V1.83335C40.3333 0.821339 41.1547 3.24653e-05 42.1666 3.24653e-05L42.1667 0ZM51.3333 18.3333H3.66669V58.6666H51.3333V18.3333ZM40.8705 26.2038L43.4628 28.7962L23.8315 48.4275L11.5372 36.1295L14.1295 33.5371L23.8315 43.2391L40.8705 26.2038ZM11 7.33335H5.50001C4.49163 7.33335 3.66669 8.15466 3.66669 9.16667V14.6667H51.3333V9.16667C51.3333 8.15466 50.5083 7.33335 49.5 7.33335H44V9.16667C44 10.1787 43.1786 11 42.1667 11C41.1547 11 40.3333 10.1787 40.3333 9.1667V7.33332H14.6667V9.16667C14.6667 10.1787 13.8453 11 12.8333 11C11.8214 11 11 10.1787 11 9.1667V7.33335Z" fill="#53A6E3"/>
</svg>
