<svg width="16" height="16" viewBox="0 0 16 16" fill="none" xmlns="http://www.w3.org/2000/svg">
<path d="M12.4439 11.8154L15.8698 15.2413C16.0434 15.4149 16.0434 15.6963 15.8698 15.8698C15.6963 16.0434 15.4149 16.0434 15.2413 15.8698L11.8154 12.4439C10.5617 13.5507 8.91485 14.2222 7.11111 14.2222C3.18375 14.2222 0 11.0385 0 7.11111C0 3.18375 3.18375 0 7.11111 0C11.0385 0 14.2222 3.18375 14.2222 7.11111C14.2222 8.91485 13.5507 10.5617 12.4439 11.8154ZM7.11111 13.3333C10.5475 13.3333 13.3333 10.5475 13.3333 7.11111C13.3333 3.67467 10.5475 0.888889 7.11111 0.888889C3.67467 0.888889 0.888889 3.67467 0.888889 7.11111C0.888889 10.5475 3.67467 13.3333 7.11111 13.3333Z" fill="black" fill-opacity="0.5"/>
</svg>
