<svg xmlns="http://www.w3.org/2000/svg" width="34" height="35" viewBox="0 0 34 35" fill="none">
  <path d="M2 2H4.67038C6.32784 2 7.63232 3.42726 7.49419 5.06938L6.2204 20.3549C6.00554 22.8565 7.98528 25.005 10.5022 25.005H26.8466C29.0566 25.005 30.9903 23.1941 31.1591 20.9995L31.9879 9.48929C32.172 6.94171 30.2383 4.86987 27.6754 4.86987H7.86254" stroke="#292D32" stroke-width="3" stroke-miterlimit="10" stroke-linecap="round" stroke-linejoin="round"/>
  <path d="M23.8694 32.6938C24.9289 32.6938 25.7877 31.835 25.7877 30.7754C25.7877 29.7159 24.9289 28.8571 23.8694 28.8571C22.8098 28.8571 21.951 29.7159 21.951 30.7754C21.951 31.835 22.8098 32.6938 23.8694 32.6938Z" stroke="#292D32" stroke-width="3" stroke-miterlimit="10" stroke-linecap="round" stroke-linejoin="round"/>
  <path d="M11.5918 32.6938C12.6513 32.6938 13.5102 31.835 13.5102 30.7754C13.5102 29.7159 12.6513 28.8571 11.5918 28.8571C10.5323 28.8571 9.67344 29.7159 9.67344 30.7754C9.67344 31.835 10.5323 32.6938 11.5918 32.6938Z" stroke="#292D32" stroke-width="3" stroke-miterlimit="10" stroke-linecap="round" stroke-linejoin="round"/>
  <path d="M12.7429 11.2081H31.1592" stroke="#292D32" stroke-width="3" stroke-miterlimit="10" stroke-linecap="round" stroke-linejoin="round"/>
</svg>