<svg xmlns="http://www.w3.org/2000/svg" width="51" height="51" viewBox="0 0 51 51" fill="none">
  <path d="M50.5728 26.3291C50.5728 39.5487 39.252 50.2646 25.2864 50.2646C11.3212 50.2646 0 39.5487 0 26.3291C0 13.11 11.3212 2.39355 25.2864 2.39355C39.252 2.39355 50.5728 13.11 50.5728 26.3291Z" fill="#27AE60"/>
  <path d="M50.5728 23.9355C50.5728 37.1551 39.252 47.8711 25.2864 47.8711C11.3212 47.8711 0 37.1551 0 23.9355C0 10.7164 11.3212 0 25.2864 0C39.252 0 50.5728 10.7164 50.5728 23.9355Z" fill="#2ECC71"/>
  <path d="M35.401 16.7549L20.2291 31.1162L13.9075 25.1323L8.53418 30.1587L14.8558 36.1426L19.913 40.9297L20.2291 41.169L40.7743 21.7813L35.401 16.7549Z" fill="#27AE60"/>
  <path d="M35.401 14.3613L20.2291 28.7227L13.9075 22.7388L8.53418 27.7652L14.8558 33.7491L19.913 38.5362L20.2291 38.7755L40.7743 19.3877L35.401 14.3613Z" fill="#ECF0F1"/>
</svg>