<svg xmlns="http://www.w3.org/2000/svg" width="29" height="27" viewBox="0 0 29 27" fill="none">
  <path d="M27.1923 9.7499V17.2499C27.1923 20.3749 26.5374 22.5624 25.0707 23.9749L16.7153 15.9999L26.8387 6.3374C27.0744 7.3249 27.1923 8.4499 27.1923 9.7499Z" stroke="#FFB649" stroke-width="2" stroke-linecap="round" stroke-linejoin="round"/>
  <path d="M26.8387 6.3375L6.59205 25.6625C2.6501 24.8 1 22.2 1 17.25V9.75C1 3.5 3.61923 1 10.1673 1H18.025C23.2111 1 25.9351 2.575 26.8387 6.3375Z" stroke="#FFB649" stroke-width="2" stroke-linecap="round" stroke-linejoin="round"/>
  <path d="M25.0706 23.975C23.5907 25.375 21.2989 26 18.0248 26H10.1672C8.80518 26 7.62652 25.8875 6.59192 25.6625L16.7152 16L25.0706 23.975Z" stroke="#FFB649" stroke-width="2" stroke-linecap="round" stroke-linejoin="round"/>
  <path d="M6.55271 8.47502C7.44325 4.81252 13.2055 4.81252 14.0961 8.47502C14.6068 10.625 13.1924 12.4501 11.9483 13.5751C11.0447 14.4001 9.61722 14.4001 8.70049 13.5751C7.45636 12.4501 6.02886 10.625 6.55271 8.47502Z" stroke="#FFB649" stroke-width="2"/>
  <path d="M10.2911 9.37488H10.3024" stroke="#FFB649" stroke-width="2" stroke-linecap="round" stroke-linejoin="round"/>
</svg>