<svg xmlns="http://www.w3.org/2000/svg" width="25" height="25" viewBox="0 0 25 25" fill="none">
<path d="M12.5834 25C10.8172 25 9.0385 24.3235 7.6982 22.9829L2.02383 17.3074C0.645944 15.9293 -0.0805757 14.0249 0.00710775 12.083L0.307737 5.81866C0.445525 2.82432 2.81298 0.456413 5.81927 0.30607L12.0824 0.00538301C14.0239 -0.0697887 15.9279 0.644343 17.3058 2.02249L22.9802 7.69795C25.6733 10.3916 25.6733 14.7892 22.9802 17.4828L17.4811 22.9829C16.1283 24.3235 14.3621 25 12.5834 25ZM3.3516 15.9669L9.02597 21.6423C9.97796 22.5945 11.2431 23.1207 12.5834 23.1207C13.9237 23.1207 15.1889 22.5945 16.1408 21.6423L21.6398 16.1423C22.5918 15.1901 23.1179 13.9247 23.1179 12.5841C23.1179 11.2436 22.5918 9.97816 21.6398 9.02599L15.9655 3.35052C14.9634 2.34823 13.573 1.8095 12.17 1.88468L5.90695 2.18536C3.86518 2.27306 2.27435 3.8642 2.17414 5.89383L1.87351 12.1582C1.81088 13.5739 2.34951 14.9646 3.3516 15.9669Z" fill="#FFB649"/>
<path d="M9.36521 13.4357C7.12302 13.4357 5.29419 11.6065 5.29419 9.36391C5.29419 7.12129 7.12302 5.29211 9.36521 5.29211C11.6074 5.29211 13.4362 7.12129 13.4362 9.36391C13.4362 11.6065 11.6074 13.4357 9.36521 13.4357ZM9.36521 7.17141C8.16269 7.17141 7.17312 8.16117 7.17312 9.36391C7.17312 10.5667 8.16269 11.5564 9.36521 11.5564C10.5677 11.5564 11.5573 10.5667 11.5573 9.36391C11.5573 8.16117 10.5677 7.17141 9.36521 7.17141Z" fill="#FFB649"/>
</svg>