<svg width="20" height="25" viewBox="0 0 20 25" fill="none" xmlns="http://www.w3.org/2000/svg">
<path d="M19.1505 11.4401C18.599 10.2975 17.7973 9.272 16.7954 8.4277L15.9687 7.72952C15.9407 7.70646 15.9069 7.6901 15.8703 7.68187C15.8338 7.67364 15.7956 7.67379 15.7592 7.68231C15.7227 7.69083 15.6891 7.70746 15.6612 7.73073C15.6334 7.75401 15.6121 7.78322 15.5994 7.81581L15.2301 8.79118C15 9.40307 14.5767 10.028 13.9773 10.6425C13.9375 10.6818 13.892 10.6922 13.8608 10.6948C13.8295 10.6975 13.7812 10.6922 13.7386 10.6556C13.6988 10.6242 13.679 10.5772 13.6818 10.5301C13.7869 8.95592 13.2756 7.18038 12.1562 5.24795C11.2301 3.64239 9.94317 2.38984 8.33522 1.51645L7.16192 0.881028C7.00852 0.797351 6.81249 0.907177 6.82102 1.07192L6.88352 2.32708C6.92613 3.18478 6.81817 3.94311 6.56249 4.5733C6.24999 5.34471 5.80113 6.06119 5.22727 6.70447C4.8279 7.15152 4.37525 7.55588 3.87784 7.90995C2.67984 8.75762 1.70572 9.84377 1.02841 11.0871C0.352766 12.3412 0.00082432 13.722 0 15.1219C0 16.3562 0.264204 17.5512 0.786931 18.6782C1.29166 19.7633 2.02005 20.7481 2.93182 21.5782C3.85227 22.4149 4.92045 23.0739 6.11079 23.5315C7.34374 24.0074 8.65056 24.248 9.99999 24.248C11.3494 24.248 12.6562 24.0074 13.8892 23.5341C15.0766 23.0792 16.1564 22.4157 17.0682 21.5808C17.9886 20.744 18.7102 19.766 19.213 18.6808C19.735 17.5569 20.0027 16.3468 20 15.1245C20 13.8484 19.7159 12.609 19.1505 11.4401ZM15.7102 20.3125C14.1846 21.7037 12.1591 22.4672 9.99999 22.4672C7.8409 22.4672 5.81534 21.7037 4.28977 20.3125C2.76988 18.924 1.93182 17.0831 1.93182 15.1245C1.93182 13.987 2.21023 12.8966 2.75852 11.882C3.29261 10.891 4.08806 10.0045 5.05397 9.32201C5.66999 8.88843 6.22872 8.38995 6.71874 7.83673C7.42897 7.03918 7.98579 6.1501 8.37215 5.19565C8.53064 4.80195 8.64579 4.39459 8.7159 3.97971C9.40056 4.56023 9.97442 5.26103 10.4545 6.08211C11.4034 7.71906 11.8409 9.17557 11.7557 10.415C11.7353 10.707 11.7871 10.9993 11.9072 11.2702C12.0272 11.541 12.2124 11.7833 12.4489 11.9788C12.6537 12.1491 12.8933 12.2803 13.1538 12.3647C13.4142 12.4491 13.6903 12.485 13.9659 12.4704C14.5256 12.4442 15.0398 12.2167 15.4148 11.8323C15.7926 11.4427 16.1193 11.0452 16.392 10.6399C16.7898 11.108 17.1221 11.6179 17.3863 12.167C17.838 13.1032 18.0682 14.0995 18.0682 15.1245C18.0682 17.0831 17.2301 18.9266 15.7102 20.3125Z" fill="black"/>
</svg>
