<svg xmlns="http://www.w3.org/2000/svg" width="25" height="25" viewBox="0 0 25 25" fill="none">
  <path d="M12.5 25C5.60465 25 0 19.3953 0 12.5C0 5.60465 5.60465 0 12.5 0C19.3953 0 25 5.60465 25 12.5C25 19.3953 19.3953 25 12.5 25ZM12.5 1.74419C6.56977 1.74419 1.74419 6.56977 1.74419 12.5C1.74419 18.4302 6.56977 23.2558 12.5 23.2558C18.4302 23.2558 23.2558 18.4302 23.2558 12.5C23.2558 6.56977 18.4302 1.74419 12.5 1.74419Z" fill="#FFB649"/>
  <path d="M16.8136 17.0698C16.6625 17.0698 16.5113 17.0349 16.3718 16.9419L12.7671 14.7907C11.8718 14.2558 11.209 13.0814 11.209 12.0465V7.27908C11.209 6.80233 11.6043 6.40698 12.0811 6.40698C12.5578 6.40698 12.9532 6.80233 12.9532 7.27908V12.0465C12.9532 12.4651 13.302 13.0814 13.6625 13.2907L17.2671 15.4419C17.6857 15.686 17.8136 16.2209 17.5694 16.6395C17.395 16.9186 17.1043 17.0698 16.8136 17.0698Z" fill="#FFB649"/>
</svg>